<?xml version="1.0" encoding="utf-8"?>
<!-- Generator: Adobe Illustrator 19.2.1, SVG Export Plug-In . SVG Version: 6.00 Build 0)  -->
<svg version="1.1" id="Layer_1" xmlns="http://www.w3.org/2000/svg" xmlns:xlink="http://www.w3.org/1999/xlink" x="0px" y="0px"
	 viewBox="0 0 67.8 88.5" style="enable-background:new 0 0 67.8 88.5;" xml:space="preserve">
<style type="text/css">
	.st0{fill:#45B2E0;}
	.st1{fill:#77CEF3;}
	.st2{fill:#2AA1D4;}
	.st3{fill:#1E659E;}
	.st4{fill:#1864A0;}
</style>
<g>
	<g>
		<path class="st0" d="M54.4,15.1l-4.7,4.7c0,0,0,0,0,0c0,0,0,0,0,0l-4.9,4.9c2,2.5,3.2,5.6,3.2,8.9c0,3.4-1.2,6.5-3.4,9.1l5.1,5.1
			c0,0,0,0,0,0c0,0,0,0,0,0l4.5,4.5c4.7-5.1,7.3-11.7,7.3-18.7C61.6,26.7,59,20.2,54.4,15.1z"/>
		<path class="st1" d="M54.3,52.4c-0.3,0.3-0.6,0.6-0.9,0.9c-5.3,5.3-12.2,8.1-19.7,8.1c0,0,0,0,0,0c-7.4,0-14.4-2.9-19.7-8.1
			c-0.5-0.5-0.5-1.3,0-1.8l3-3c-7.4-8.5-7.3-21.2,0.2-29.6L14,15.7c-0.2-0.2-0.4-0.6-0.4-0.9s0.1-0.7,0.4-0.9
			c5.3-5.3,12.2-8.1,19.7-8.1c7.4,0,14.4,2.9,19.7,8.1c0.4,0.4,0.7,0.7,1,1.1l3.1-3.1c0.2-0.2,0.4-0.6,0.4-0.9s-0.1-0.7-0.4-0.9
			c-13-13-34.3-13-47.3,0c-6.3,6.3-9.8,14.7-9.8,23.7c0,8.9,3.5,17.3,9.8,23.7c6.5,6.5,15.1,9.8,23.7,9.8c8.6,0,17.1-3.3,23.7-9.8
			c0.2-0.2,0.4-0.6,0.4-0.9c0-0.3-0.1-0.7-0.4-0.9L54.3,52.4z"/>
		<g>
			<path class="st2" d="M17.2,18.9c0.3-0.3,0.5-0.6,0.9-0.9c8.7-8.7,22.9-8.7,31.6,0c0.2,0.2,0.4,0.6,0.4,0.9c0,0.3-0.1,0.6-0.4,0.9
				c0,0,0,0,0,0l4.7-4.7c-0.3-0.4-0.7-0.8-1-1.1c-5.3-5.3-12.2-8.1-19.7-8.1C26.3,5.8,19.3,8.7,14,14c-0.2,0.2-0.4,0.6-0.4,0.9
				s0.1,0.7,0.4,0.9L17.2,18.9z"/>
			<path class="st2" d="M54.3,52.4l-4.5-4.5c0,0,0,0,0,0c0.2,0.2,0.4,0.5,0.4,0.9c0,0.3-0.1,0.7-0.4,0.9c-4.4,4.4-10.1,6.5-15.8,6.5
				S22.4,54,18.1,49.6c-0.4-0.4-0.7-0.7-1-1.1l-3,3c-0.5,0.5-0.5,1.3,0,1.8c5.3,5.3,12.2,8.1,19.7,8.1c0,0,0,0,0,0
				c7.4,0,14.4-2.9,19.7-8.1C53.7,53,54,52.7,54.3,52.4z"/>
		</g>
		<g>
			<path class="st3" d="M33.9,56.2c-5.7,0-11.5-2.2-15.8-6.5c-8.7-8.7-8.7-22.9,0-31.6c8.7-8.7,22.9-8.7,31.6,0
				c0.2,0.2,0.4,0.6,0.4,0.9s-0.1,0.7-0.4,0.9l-7.8,7.8c-0.5,0.5-1.3,0.5-1.8,0c-3.4-3.4-9-3.4-12.4,0c-3.4,3.4-3.4,9,0,12.4
				c3.4,3.4,9,3.4,12.4,0c0.5-0.5,1.3-0.5,1.8,0l7.8,7.8c0.2,0.2,0.4,0.6,0.4,0.9c0,0.3-0.1,0.7-0.4,0.9
				C45.4,54,39.6,56.2,33.9,56.2z"/>
		</g>
	</g>
	<g>
		<g>
			<g>
				<g>
					<path class="st4" d="M10,86.5c-1.2,1.2-2.4,1.6-4,1.6c-3,0-5.5-1.8-5.5-5.4c0-3.7,2.5-5.4,5.5-5.4c1.5,0,2.6,0.4,3.7,1.5
						l-1.6,1.7c-0.6-0.5-1.4-0.8-2.1-0.8c-1.7,0-3,1.3-3,3c0,2,1.3,3,2.9,3c0.8,0,1.6-0.2,2.3-0.9L10,86.5z"/>
					<path class="st4" d="M21.4,82.7c0,3-2,5.4-5.4,5.4s-5.3-2.4-5.3-5.4c0-2.9,2-5.4,5.3-5.4C19.3,77.3,21.4,79.8,21.4,82.7z
						 M13.2,82.7c0,1.6,0.9,3,2.8,3s2.8-1.5,2.8-3c0-1.5-1.1-3-2.8-3C14.2,79.7,13.2,81.2,13.2,82.7z"/>
					<path class="st4" d="M30.5,87.8v-5.4c0-1.6-0.9-2.8-2.5-2.8c-1.6,0-2.6,1.3-2.6,2.9v5.3h-2.5V77.5h2.3l0.2,1.4
						c1-1,2.1-1.5,3.4-1.5c2.4,0,4.4,1.8,4.4,5.1v5.4H30.5z"/>
					<path class="st4" d="M40,75.2c-0.9,0-1.5,0.6-1.5,1.8v0.7h3v2.2h-3v7.9h-2.5v-7.9h-1.9v-2.2h1.9V77c0-2.8,1.9-4,3.9-4h0.8v2.2
						H40"/>
					<path class="st4" d="M45.8,74.7c0,2-3,2-3,0C42.8,72.7,45.8,72.7,45.8,74.7z M43,77.5v10.3h2.5V77.5H43z"/>
					<path class="st4" d="M58.1,82.7c0,3-2,5.4-5.4,5.4c-3.3,0-5.3-2.4-5.3-5.4c0-2.9,2-5.4,5.3-5.4S58.1,79.8,58.1,82.7z M50,82.7
						c0,1.6,0.9,3,2.8,3c1.9,0,2.8-1.5,2.8-3c0-1.5-1.1-3-2.8-3C50.9,79.7,50,81.2,50,82.7z"/>
				</g>
			</g>
			<path class="st4" d="M40,75.2"/>
		</g>
		<path class="st4" d="M67.3,77c0,2.2-1.4,4-3.9,4c-2.5,0-4-1.8-4-4s1.5-4,4-4C65.9,73,67.3,74.8,67.3,77z M63.4,79.9
			c1.8,0,2.8-1.3,2.8-2.9s-1-2.9-2.8-2.9c-1.8,0-2.9,1.3-2.9,2.9S61.6,79.9,63.4,79.9z M65.1,78.4l-0.7-0.7
			c-0.3,0.3-0.5,0.4-0.9,0.4c-0.6,0-1.2-0.4-1.2-1.1c0-0.8,0.6-1.2,1.2-1.2c0.3,0,0.6,0.1,0.9,0.4l0.7-0.6c-0.4-0.4-0.9-0.7-1.6-0.7
			c-1.2,0-2.2,0.8-2.2,2.1s1,2.1,2.2,2.1C64.2,79.1,64.7,78.8,65.1,78.4z"/>
	</g>
</g>
</svg>
